<svg width="524" height="539" viewBox="0 0 524 539" fill="none" xmlns="http://www.w3.org/2000/svg">
<path fill-rule="evenodd" clip-rule="evenodd" d="M249.172 0.119453C249.138 0.592421 248.314 6.33216 247.342 12.8744C246.37 19.4167 244.832 30.3542 243.924 37.1799C242.487 47.9878 239.68 67.8387 237.392 83.3735C232.877 114.041 231.605 122.34 230.473 128.533C229.745 132.515 228.939 138.017 228.683 140.761L228.217 145.749L224.334 147.523C222.199 148.498 218.057 150.675 215.132 152.359C212.206 154.044 209.464 155.422 209.038 155.422C208.612 155.422 206.034 153.853 203.309 151.935C199.615 149.336 161.379 123.908 132.162 104.621C130.6 103.59 134.364 108.606 151.396 130.252C155.194 135.079 159.488 140.733 160.938 142.817C164.532 147.985 178.585 166.381 185.491 174.961C189.183 179.547 189.263 179.737 188.392 181.856C187.9 183.054 186.996 185.337 186.384 186.928C184.873 190.856 188.554 190.073 120.667 200.916C110.982 202.464 98.3968 204.516 92.6997 205.478C87.0027 206.439 79.5447 207.665 76.1265 208.201C72.7083 208.737 64.6289 210.128 58.1722 211.291C51.7156 212.454 40.3732 214.465 32.9671 215.758C7.59627 220.19 6.32081 220.46 8.28474 220.984C10.8094 221.659 28.4778 223.449 48.5045 225.058C82.5645 227.797 92.7902 228.557 104.094 229.188C111.12 229.581 121.219 230.205 126.537 230.574C131.854 230.943 147.081 231.874 160.374 232.643C173.667 233.411 185.416 234.219 186.483 234.439C187.791 234.707 188.777 235.577 189.507 237.105C190.569 239.327 190.544 239.439 188.257 242.629C186.327 245.321 164.169 274.187 157.234 284.32C156.256 285.75 155.605 287.069 155.788 287.251C155.97 287.434 158.813 288.278 162.104 289.127L168.088 290.672V294.987C168.088 297.36 168.226 299.302 168.396 299.302C168.798 299.302 194.546 279.313 199.167 276.318C201.134 275.043 203.309 273.77 204.001 273.488C204.693 273.205 207.955 271.365 211.249 269.399L217.237 265.823L222.643 268.045C227.802 270.165 228.057 270.374 228.264 272.654C228.382 273.968 230.186 284.971 232.272 297.105C237.907 329.895 242.004 354.155 244.324 368.464C245.461 375.479 246.669 382.305 247.008 383.632C247.346 384.96 248.309 390.079 249.147 395.008C249.984 399.938 250.883 404.375 251.144 404.867C251.639 405.799 252.285 402.372 256.382 377.082C257.733 368.74 259.748 356.95 260.861 350.883C263.527 336.336 263.938 333.998 266.685 317.789C273.47 277.765 274.982 269.872 275.863 269.872C276.357 269.872 278.851 268.926 281.405 267.77C286.816 265.321 286.707 265.295 294.133 270.769C296.906 272.813 302.681 276.865 306.966 279.773C327.247 293.536 382.053 330.198 384.446 331.602C385.548 332.249 383.801 330.01 373.063 317.019C369.265 312.424 364.138 306.073 361.669 302.907C359.2 299.74 355.918 295.586 354.373 293.674C349.558 287.712 313.179 239.239 312.815 238.299C312.625 237.809 312.585 237.296 312.727 237.158C312.869 237.022 317.957 236.401 324.034 235.778C330.111 235.156 339.123 234.194 344.06 233.642C348.998 233.088 362.286 231.859 373.591 230.909C384.896 229.959 397.636 228.739 401.903 228.198C406.171 227.656 413.236 226.868 417.604 226.448C432.183 225.044 450.954 222.969 465.252 221.18C486.638 218.505 488.974 218.226 490.284 218.193C490.949 218.176 491.493 217.905 491.493 217.589C491.493 217.274 487.531 216.478 482.688 215.821C477.845 215.164 464.406 213.116 452.822 211.269C422.597 206.451 402.671 203.392 381.005 200.241C370.56 198.723 359.373 197.022 356.145 196.46C352.916 195.899 343.594 194.499 335.428 193.349C315.118 190.489 317.183 191.203 315.898 186.593L314.803 182.666L316.649 180.248C317.665 178.917 326.267 168.521 335.767 157.145C353.399 136.027 367.411 118.763 371.141 113.56C372.287 111.961 374.212 109.53 375.419 108.158C377.893 105.344 377.564 105.248 383.076 110.411C386.172 113.31 386.189 113.317 387.551 111.959C388.913 110.602 388.898 110.577 383.125 105.258C351.952 76.5327 312.394 59.0515 267.927 54.3501L263.611 53.8937V55.9055V57.9174L273.451 59.0412C284.066 60.2539 304.825 65.0057 314.986 68.5474C335.162 75.582 359.021 89.2484 374.444 102.606C377.194 104.987 377.2 105.004 375.825 106.309C375.066 107.03 371.337 109.587 367.539 111.991C363.741 114.394 357.681 118.274 354.073 120.612C337.861 131.116 314.721 145.727 312.578 146.813C311.282 147.468 308.048 149.464 305.389 151.247C302.731 153.029 299.266 155.203 297.69 156.077L294.824 157.666L292.511 155.93C288.196 152.692 281.237 148.798 276.904 147.197C274.531 146.319 272.581 145.252 272.572 144.824C272.548 143.646 270.089 127.875 268.474 118.536C267.686 113.985 266.109 104.057 264.969 96.4732C263.83 88.8892 262.423 79.8918 261.844 76.479C261.264 73.0661 260.502 68.4123 260.15 66.1371C259.798 63.8619 258.878 58.1222 258.107 53.3821C257.335 48.6421 255.776 38.4037 254.641 30.63C252.662 17.0643 249.304 -1.67176 249.172 0.119453ZM248.739 104.762L249.237 142.007L242.785 142.822C239.237 143.27 235.635 143.842 234.78 144.094C233.372 144.508 233.227 144.319 233.227 142.073C233.227 139.686 234.884 128.371 237.027 116.123C237.591 112.9 238.672 105.609 239.428 99.9205C240.185 94.2325 241.267 86.9415 241.832 83.7183C242.696 78.7997 245.322 61.0641 246.937 49.2454C247.587 44.493 248.174 62.6091 248.739 104.762ZM223.559 55.4374C203.03 58.6365 191.221 61.6418 176.256 67.4767C163.036 72.6318 149.499 79.6856 140.14 86.2968C138.658 87.3434 135.923 89.2677 134.063 90.5728C128.372 94.5655 115.726 105.346 111.278 109.997C101.14 120.597 87.9646 138.757 82.3767 149.836C74.7958 164.866 70.0255 178.599 67.5223 192.601C65.6398 203.128 65.6647 204.373 67.7584 204.373C69.297 204.373 69.4806 203.938 70.6014 197.651C73.7262 180.119 79.8796 161.891 86.4854 150.596C87.7056 148.51 90.5058 143.701 92.7094 139.909C108.171 113.295 140.117 86.5588 172.458 73.1634C188.979 66.3212 190.851 65.7365 210.093 61.4184C214.759 60.3712 228.271 58.3959 233.216 58.038C235.297 57.8871 235.641 57.6078 235.764 55.9676C235.892 54.2543 235.694 54.0778 233.703 54.1357C232.492 54.1716 227.927 54.7569 223.559 55.4374ZM207.331 64.4134C207.096 64.7926 207.506 65.1029 208.242 65.1029C211.708 65.1029 211.818 68.6957 208.48 72.8896C204.291 78.153 204.113 85.262 208.127 87.0876C210.373 88.1094 212.219 87.0401 215.037 83.0819C216.191 81.461 217.769 80.1531 218.868 79.9056C219.896 79.6746 221.96 78.8955 223.453 78.175C224.948 77.4545 227.471 76.5727 229.061 76.2163C232.153 75.5227 233.028 75.0159 232.332 74.3223C231.739 73.7294 226.015 75.2269 222.626 76.8616C221.097 77.5993 219.39 78.2026 218.831 78.2026C218.274 78.2026 216.026 80.0641 213.837 82.3387C209.421 86.9297 208.216 87.0966 206.959 83.2922C205.993 80.3703 206.633 78.3046 210.032 73.3709C212.571 69.6857 213.054 67.4071 211.795 65.0574C211.043 63.6537 208.067 63.2241 207.331 64.4134ZM288.626 65.9123C288.849 66.5804 293.39 67.8435 298.138 68.5578C300.287 68.8811 301.697 68.5212 301.429 67.7187C301.276 67.2609 299.665 66.79 297.849 66.6714C296.034 66.5535 293.978 66.1523 293.281 65.78C291.497 64.8271 288.294 64.9181 288.626 65.9123ZM194.505 69.0521C197.136 72.2374 197.147 72.9138 194.597 74.7264C193.48 75.5206 192.37 76.7858 192.131 77.5386C191.892 78.2915 190.762 79.3892 189.621 79.9786C187.739 80.9501 187.389 80.948 185.872 79.9552C183.567 78.448 183.773 77.1981 186.615 75.4448C189.212 73.8418 189.422 73.3261 188.317 71.2625C187.554 69.8409 183.928 69.3803 183.168 70.6082C182.909 71.0267 183.524 71.1322 184.77 70.8833C187.892 70.2601 187.817 71.4025 184.519 74.7029L181.5 77.7227L182.849 79.4347C184.58 81.632 184.55 81.9181 182.471 83.0288C181.522 83.5362 180.755 84.2864 180.768 84.6966C180.806 85.9459 183.314 88.5445 184.481 88.5445C185.182 88.5445 185.579 89.1478 185.579 90.215C185.579 91.1341 186.382 92.8391 187.364 94.0043C188.828 95.7424 189.038 96.4539 188.531 97.9721C187.791 100.189 187.372 100.422 180.803 102.27C177.986 103.063 175.514 103.879 175.31 104.083C175.105 104.288 175.326 105.451 175.801 106.669C176.276 107.887 176.729 109.172 176.806 109.523C176.883 109.876 175.548 110.409 173.839 110.708C171.67 111.089 170.211 111.866 169.005 113.283C168.056 114.398 166.071 116.27 164.594 117.44C163.118 118.612 162.27 119.57 162.709 119.57C163.924 119.57 169.022 116.192 169.437 115.113C169.927 113.837 174.375 111.779 175.615 112.254C176.186 112.473 178.071 111.332 180.078 109.552C183.992 106.081 184.961 105.853 187.029 107.918C187.826 108.715 188.735 109.102 189.049 108.78C189.362 108.457 189.715 105.197 189.834 101.535C190.02 95.7769 189.872 94.6786 188.741 93.4307C187.777 92.3682 187.464 91.0789 187.553 88.5548C187.712 84.0789 188.625 81.805 190.63 80.8929C191.524 80.4861 192.791 79.2492 193.445 78.144C194.594 76.2025 195.507 75.8192 198.278 76.1142C199.287 76.2218 199.469 75.966 199.08 74.9877C198.803 74.2906 198.442 72.9455 198.278 71.9975C197.995 70.369 194.261 66.4818 192.978 66.4818C192.651 66.4818 193.338 67.6387 194.505 69.0521ZM179.018 73.2806C177.879 73.9831 176.342 75.2373 175.602 76.0674C174.107 77.7469 168.097 80.9604 166.453 80.9604C164.333 80.9604 160.155 83.9451 158.729 86.4789C156.904 89.7193 156.873 91.3285 158.624 91.7863C159.372 91.9807 160.173 92.7405 160.407 93.4741C160.705 94.4124 161.223 94.6827 162.156 94.3869C163.652 93.9133 164.096 95.7858 162.618 96.3333C161.988 96.5663 162.086 96.9993 162.981 97.9356C164.103 99.1083 164.368 99.1297 166.089 98.1824C167.123 97.6129 170.146 93.8933 172.806 89.9158C176.222 84.8097 178.099 82.6193 179.194 82.4634C180.785 82.238 181.237 81.3458 180.113 80.6516C179.023 79.9793 175.731 83.3191 171.077 89.8207C168.608 93.2686 166.167 96.0988 165.651 96.1092C165.063 96.1216 164.877 95.7066 165.15 94.9944C165.64 93.7195 163.785 91.3023 162.316 91.3023C161.181 91.3023 160.108 88.7334 160.546 87.0635C161.033 85.2034 162.8 83.9603 167.279 82.3283C173.02 80.2365 174.397 79.9917 175.461 80.8736C176.683 81.8864 177.501 81.008 176.48 79.7794C175.838 79.0086 176.321 78.2598 178.902 76.0198C183.249 72.2485 183.317 70.6289 179.018 73.2806ZM233.275 73.8935C233.319 75.5737 233.391 75.6323 233.917 74.4106C234.728 72.5277 234.728 71.9975 233.917 71.9975C233.537 71.9975 233.249 72.851 233.275 73.8935ZM322.629 77.1298C320.336 79.4195 321.378 82.3538 325.042 83.9251C326.622 84.6028 326.372 84.7152 322.514 85.06C320.159 85.2702 317.844 85.8301 317.37 86.3037C316.194 87.4786 315.167 87.391 315.643 86.1562C316.077 85.0255 312.303 81.612 308.765 79.9359C305.973 78.6135 300.194 78.5921 297.075 79.8932C295.755 80.444 293.26 82.2277 291.53 83.8575C289.799 85.4874 287.782 87.1008 287.046 87.4434C286.106 87.8805 285.709 88.7651 285.709 90.4191C285.709 93.6747 286.809 95.439 288.84 95.439C291.117 95.439 290.986 96.4484 288.471 98.3058C284.699 101.09 285.657 101.921 293.399 102.577C297.184 102.898 297.422 102.812 302.031 99.4655C304.637 97.5722 306.866 95.7597 306.984 95.437C307.214 94.8027 301.334 91.9918 299.777 91.9918C298.586 91.9918 298.592 90.6377 299.79 89.0616C301.127 87.3028 301.684 87.5834 301.155 89.751C300.694 91.645 300.696 91.6457 302.178 90.3336C303.041 89.5704 303.663 88.1991 303.663 87.0587C303.663 84.2333 301.5 84.4891 298.025 87.7261C295.503 90.0744 295.174 90.7556 294.939 94.1036C294.478 100.697 294.334 100.955 291.105 100.955C288.132 100.955 288.046 100.6 290.703 99.2848C291.588 98.8464 292.358 97.7522 292.474 96.7683C292.638 95.3708 292.229 94.8289 290.403 94.0263C289.151 93.4762 288.027 92.4895 287.905 91.8339C287.63 90.3488 295.476 82.0615 298.238 80.9191C301.528 79.5588 307.422 80.4303 310.765 82.7717C312.396 83.9134 313.773 85.4798 313.897 86.3327C314.145 88.0446 313.003 88.4148 312.39 86.8208C311.788 85.253 310.769 85.5826 310.409 87.462C309.919 90.0192 312.594 90.3653 316.747 88.2825C319.759 86.7726 320.811 86.6223 327.007 86.8222C330.804 86.9442 334.587 87.4055 335.414 87.8474C337.358 88.8864 338.999 88.2756 338.407 86.7339C337.915 85.4536 338.344 85.6156 341.816 88.015C343.696 89.3146 343.715 89.3139 343.715 87.926C343.715 87.1552 344.345 86.1879 345.115 85.7763C345.885 85.3647 346.333 84.7331 346.11 84.3733C345.528 83.4321 342.072 83.5659 341.068 84.5684C340.393 85.242 340.133 85.0986 339.814 83.8789C339.592 83.0323 339.145 82.3393 338.822 82.3393C338.498 82.3393 338.413 82.8047 338.631 83.3735C339.173 84.7828 337.964 84.6718 334.71 83.015C332.07 81.6699 331.232 80.1214 332.666 79.2368C333.64 78.6363 333.525 77.509 332.493 77.5345C332.019 77.5469 331.056 78.3426 330.355 79.3037C329.14 80.9687 329.137 81.1128 330.29 82.3842C330.955 83.1177 331.995 83.7293 332.6 83.7424C333.206 83.7562 334.479 84.2402 335.428 84.8179C337.098 85.8342 337.048 85.8563 333.879 85.4964C332.077 85.2923 329.125 84.3553 327.318 83.4149C321.724 80.5026 321.779 80.5764 323.655 78.5839C324.565 77.6159 325.723 76.8237 326.226 76.8237C326.729 76.8237 327.142 76.5134 327.142 76.1342C327.142 74.8256 324.312 75.4496 322.629 77.1298ZM186.949 83.5459C186.931 85.5384 185.974 86.4506 184.345 86.0252C182.669 85.5874 182.247 84.4077 183.768 84.4077C184.291 84.4077 185.106 83.9423 185.579 83.3735C186.691 82.036 186.962 82.0698 186.949 83.5459ZM281.911 87.8764C281.151 88.2163 279.208 88.8278 277.593 89.236C275.723 89.7083 273.563 91.0389 271.641 92.9039L268.624 95.8314L269.405 100.585C270.087 104.732 270.45 105.499 272.25 106.59C275.098 108.317 276.956 108.263 276.386 106.47C276.051 105.417 276.262 105.091 277.279 105.091C278.7 105.091 283.463 102.187 284.768 100.524C285.366 99.7626 285.275 98.7457 284.385 96.2747C283.236 93.079 283.168 93.0259 280.213 93.0259C278.427 93.0259 277.088 92.6764 276.912 92.1641C276.735 91.6463 277.222 91.3023 278.134 91.3023C280.034 91.3023 285.086 88.5238 284.604 87.744C284.172 87.0463 283.716 87.069 281.911 87.8764ZM276.298 94.207C277.984 96.2395 278.302 96.3595 280.156 95.661C282.485 94.7834 282.946 95.0502 282.946 97.2778C282.946 99.0056 281.661 99.3958 280.334 98.0707C279.027 96.7663 278.462 98.0569 279.728 99.4538C281.328 101.219 281.157 102.334 279.286 102.334C277.293 102.334 276.041 101.119 276.041 99.1862C276.041 98.3651 275.419 96.9048 274.66 95.9403C273.245 94.1449 272.814 91.9918 273.869 91.9918C274.194 91.9918 275.287 92.9887 276.298 94.207ZM299.18 95.2205C300.035 97.251 299.97 97.4771 297.982 99.3345L295.878 101.299L296.31 98.5416C296.547 97.0248 296.746 95.0598 296.75 94.1753C296.76 92.0111 298.065 92.5723 299.18 95.2205ZM272.566 101.168C272.546 105.071 272.458 105.322 271.53 104.098C270.522 102.767 270.115 97.4481 270.958 96.607C272.009 95.557 272.587 97.1937 272.566 101.168ZM421.523 101.914C420.574 102.084 419.547 102.461 419.243 102.752C418.938 103.043 419.637 106.929 420.797 111.386C421.955 115.844 422.904 120.553 422.904 121.849V124.207L418.243 123.781C415.679 123.547 410.474 122.922 406.676 122.393C400.025 121.465 399.689 121.334 397.537 118.835C396.308 117.408 395.298 116.008 395.292 115.723C395.287 115.438 394.006 115.206 392.446 115.206C390.02 115.206 389.68 115.38 390.096 116.412C390.363 117.076 391.229 119.28 392.019 121.31C392.884 123.529 394.027 125.223 394.887 125.56C396.709 126.274 403.148 127.844 413.236 130.034C417.604 130.982 421.846 131.91 422.662 132.096C423.549 132.298 424.453 133.31 424.907 134.609C426.345 138.729 426.523 138.647 416.075 138.647C407.656 138.647 406.285 138.809 404.854 139.967C403.957 140.693 403.408 141.471 403.632 141.697C403.857 141.922 408.363 142.713 413.645 143.454C422.089 144.637 423.417 145.001 424.631 146.469C425.707 147.77 426.926 148.233 430.155 148.566C446.25 150.227 452.44 149.818 466.121 146.191C475.786 143.63 484.537 143.361 487.314 145.542C489.622 147.355 495.774 147.355 500.936 145.542C503.828 144.526 506.637 144.203 512.71 144.186C521.19 144.162 522.343 143.767 522.343 140.888C522.343 139.121 520.539 135.194 519.736 135.21C518.475 135.237 517.503 136.451 517.905 137.496C518.41 138.809 516.601 138.964 509.443 138.217C505.682 137.824 505.25 137.608 504.554 135.768C503.851 133.908 503.937 133.69 505.644 132.998C512.503 130.215 517.734 127.409 520.188 125.196C522.677 122.951 523.034 122.26 523.034 119.683C523.034 115.475 521.589 114.189 514.063 111.699C506.483 109.192 503.711 109.233 495.412 111.976C488.964 114.108 464.632 123.435 459.465 125.757L455.629 127.48L448.771 126.341C442.264 125.262 441.84 125.087 440.522 122.942C437.821 118.549 428.282 105.183 426.512 103.313C425.525 102.27 424.387 101.459 423.983 101.51C423.579 101.562 422.473 101.744 421.523 101.914ZM187.938 104.156C188.536 105.713 188.029 106.033 186.974 104.763C185.683 103.211 184.644 103.453 181.143 106.121C178.855 107.864 177.954 108.246 177.879 107.5C177.822 106.934 177.744 106.099 177.706 105.646C177.668 105.192 179.191 104.453 181.09 104.003C186.019 102.838 187.443 102.869 187.938 104.156ZM151.742 109.494C151.742 110.571 153.588 111.53 154.092 110.715C154.269 110.429 153.813 109.818 153.078 109.361C151.995 108.685 151.742 108.71 151.742 109.494ZM428.578 113.999C430.272 115.99 432.798 119.248 434.192 121.239L436.725 124.858H434.389C433.105 124.858 431.117 124.671 429.972 124.443C428.061 124.061 427.823 123.69 427.083 119.935C426.64 117.684 425.842 114.614 425.312 113.111C424.781 111.609 424.606 110.38 424.923 110.38C425.24 110.38 426.884 112.009 428.578 113.999ZM272.957 112.638C272.17 113.909 278.245 119.754 281.362 120.725C283.356 121.345 284.089 121.345 284.497 120.725C284.866 120.162 285.454 120.44 286.424 121.638C288.69 124.437 289.242 125.644 288.473 126.119C286.6 127.274 289.237 128.745 291.923 128.044C293.93 127.52 293.664 126.722 290.197 122.872C287.149 119.487 286.463 118.191 287.72 118.191C288.79 118.191 295.356 126.483 295.824 128.424C296.066 129.432 296.693 130.722 297.217 131.291C297.74 131.86 298.806 133.179 299.584 134.221C301.044 136.174 303.336 136.751 303.824 135.289C304.029 134.675 304.714 134.746 306.471 135.561C307.775 136.166 309.852 136.873 311.086 137.133C313.483 137.637 313.748 138.187 312.616 140.299C312.185 141.103 311.173 141.633 310.071 141.633C307.866 141.633 300.129 139.595 299.209 138.772C298.06 137.745 296.178 138.139 295.136 139.624C294.309 140.802 293.874 140.927 292.725 140.313C290.649 139.204 290.345 139.375 290.848 141.373L291.302 143.182L288.678 141.097C285.633 138.678 283.435 136.336 282.415 134.422C281.858 133.379 281.955 132.875 282.839 132.204C283.848 131.437 283.761 131.332 282.107 131.313C280.976 131.3 279.391 130.47 278.112 129.222C275.716 126.883 275.747 126.893 273.904 127.878C272.357 128.705 272.865 130.218 274.482 129.598C276.107 128.976 278.45 130.87 281.234 135.058C286.279 142.647 292.093 145.412 295.613 141.897C297.422 140.092 297.439 140.09 299.271 141.376C305.117 145.476 309.095 147.162 305.523 144.024C303.458 142.21 304.233 141.786 307.41 142.992C309.645 143.841 313.406 141.805 314.654 139.071C315.384 137.47 315.332 137.082 314.286 136.318C313.615 135.828 312.387 135.428 311.557 135.428C310.727 135.428 309.66 134.962 309.187 134.393C308.714 133.825 307.954 133.359 307.497 133.359C306.632 133.359 303.663 130.521 303.663 129.695C303.663 129.435 304.44 129.222 305.389 129.222C306.655 129.222 307.116 129.59 307.116 130.601C307.116 131.36 307.392 131.98 307.73 131.98C308.067 131.98 308.3 131.437 308.247 130.774C308.188 130.027 309.075 129.116 310.574 128.383C312.945 127.225 313.074 127.238 316.613 128.987C319.17 130.25 320.485 130.569 321.096 130.073C321.573 129.686 322.584 129.23 323.344 129.058L324.725 128.747L323.344 128.179C322.584 127.866 320.983 126.769 319.785 125.739C318.588 124.709 317.189 123.725 316.678 123.554C315.91 123.297 315.922 123.031 316.742 122.04C317.664 120.923 317.553 120.872 315.188 121.314C313.493 121.632 312.64 121.536 312.64 121.026C312.64 119.289 310.283 120.475 307.054 123.838C305.164 125.806 302.51 127.796 301.158 128.261C298.774 129.079 298.662 129.04 297.555 127.009C293.939 120.377 288.406 115.384 287.061 117.541C286.541 118.377 286.206 118.39 284.973 117.627C283.723 116.853 283.316 116.889 282.233 117.867C281.037 118.947 280.813 118.904 278.496 117.14C277.14 116.107 275.459 114.478 274.76 113.52C273.843 112.263 273.341 112.017 272.957 112.638ZM506.863 114.344C506.579 114.629 505.987 114.861 505.549 114.861C505.111 114.861 504.649 115.402 504.521 116.064C504.31 117.16 504.83 117.228 510.381 116.84C515.878 116.454 516.642 116.552 518.2 117.835C520.395 119.643 519.757 120.89 515.026 124.038C508.958 128.075 501.336 130.901 470.897 140.392C461.957 143.18 455.966 144.56 449.966 145.213C445.011 145.752 430.5 144.976 430.5 144.171C430.5 143.88 431.432 143.255 432.572 142.784C435.121 141.73 435.358 139.542 432.987 138.948C431.817 138.655 431.244 137.941 431.035 136.518C430.872 135.41 430.849 134.392 430.985 134.257C431.497 133.745 450.965 138.037 453.025 139.115C457.093 141.245 467.897 138.069 472.796 133.303C474.221 131.917 475.386 130.57 475.386 130.308C475.386 129.547 473.256 128.874 469.171 128.344C466.351 127.978 465.729 127.716 466.754 127.327C467.514 127.038 470.777 125.619 474.005 124.172C482.664 120.293 492.349 116.64 497.829 115.186C502.753 113.879 507.8 113.408 506.863 114.344ZM276.641 123.763C275.929 124.202 275.899 124.53 276.514 125.144C277.412 126.041 281.156 125.409 280.568 124.459C280 123.54 277.671 123.127 276.641 123.763ZM311.949 123.694C311.949 124.065 312.804 124.568 313.848 124.81C316.274 125.372 318.855 126.973 318.855 127.916C318.855 128.317 317.754 127.966 316.409 127.136C314.028 125.667 311.874 125.565 309.015 126.786C307.447 127.455 307.409 125.977 308.949 124.278C310.173 122.927 311.949 122.582 311.949 123.694ZM329.559 124.206C326.549 124.944 325.928 127.358 328.252 129.285C328.781 129.722 329.213 130.687 329.213 131.428C329.213 132.704 329.317 132.691 331.195 131.171C332.286 130.289 333.048 129.341 332.89 129.065C332.732 128.788 332.949 127.915 333.372 127.124C333.948 126.051 333.935 125.436 333.32 124.697C332.477 123.683 331.963 123.616 329.559 124.206ZM331.285 128.229C331.285 129.229 330.986 129.809 330.594 129.567C330.215 129.333 329.904 128.539 329.904 127.803C329.904 127.067 330.215 126.465 330.594 126.465C330.974 126.465 331.285 127.259 331.285 128.229ZM302.102 132.453C302.572 133.465 302.808 134.443 302.624 134.626C302.104 135.146 299.52 132.567 299.52 131.529C299.52 129.926 301.208 130.53 302.102 132.453ZM148.98 133.905C148.98 134.206 147.272 136.3 145.184 138.559C143.097 140.818 141.188 143.407 140.942 144.313L140.496 145.958L139.274 144.34C138.064 142.739 137.996 142.732 132.64 143.614C122.469 145.29 118.785 148.443 118.093 156.067C117.671 160.707 118.122 163.124 119.702 164.701C120.714 165.712 121.069 165.658 123.949 164.05C125.678 163.086 127.223 162.427 127.383 162.587C127.542 162.746 127.37 163.973 126.999 165.314C126.141 168.416 127.084 169.75 130.335 170.034L132.752 170.245L132.518 173.5C132.377 175.475 132.699 177.583 133.337 178.86C134.11 180.407 133.02 179.608 129.224 175.842C126.383 173.024 122.907 170.201 121.5 169.569C110.563 164.657 109.016 163.244 108.204 157.421C107.866 154.994 106.994 150.589 106.267 147.631C104.247 139.411 103.446 139.372 103.292 147.485C103.201 152.257 103.081 152.721 102.232 151.562C101.553 150.634 101.403 149.233 101.716 146.733C102.028 144.239 101.798 142.078 100.927 139.32C99.61 135.148 98.0736 133.911 98.8746 137.668C99.1377 138.901 99.5976 142.455 99.8973 145.567C100.685 153.74 103.601 157.582 104.24 151.285L104.485 148.872L105.41 151.975C105.918 153.681 106.558 156.921 106.83 159.173C107.265 162.776 107.639 163.542 109.94 165.527C111.379 166.769 113.992 168.307 115.748 168.946C123.554 171.784 124.504 172.4 127.104 176.31C130.647 181.639 132.808 183.223 135.869 182.734C138.061 182.384 138.389 182.547 139.207 184.392C140.142 186.501 139.771 190.162 138.457 191.791C138.074 192.265 138.033 192.648 138.364 192.642C139.988 192.613 140.725 191.169 141.14 187.201C141.66 182.236 143.209 180.258 147.612 178.941C149.917 178.251 150.556 178.336 152.731 179.617C154.639 180.74 155.805 180.971 157.744 180.608C160.124 180.162 160.454 180.333 163.429 183.559C165.544 185.85 167.489 187.231 169.312 187.731C170.81 188.142 172.199 188.315 172.4 188.115C172.893 187.622 171.117 186.527 169.005 186.021C168.056 185.794 166.004 184.183 164.446 182.441C161.982 179.687 161.273 179.283 159.007 179.347C157.479 179.391 155.148 178.757 153.373 177.814C149.93 175.986 148.312 176.198 142.983 179.172C141.248 180.14 138.928 180.932 137.826 180.932C135.393 180.932 134.479 179.012 134.273 173.464C134.125 169.501 133.691 168.946 130.162 168.205C127.883 167.726 127.788 166.639 129.7 162.896C132.094 158.211 129.7 157.825 124.584 162.074C123.511 162.966 122.072 163.695 121.385 163.695C118.283 163.695 118.713 153.416 121.971 149.664C123.811 147.545 126.863 146.332 131.966 145.692C136.445 145.131 136.932 145.199 138.414 146.589C139.322 147.439 139.72 148.276 139.333 148.514C138.525 149.013 141.751 154.043 142.879 154.043C143.391 154.043 143.487 152.746 143.177 150.01C142.619 145.089 143.338 143.007 146.94 139.104C149.229 136.625 150.584 133.359 149.325 133.359C149.135 133.359 148.98 133.605 148.98 133.905ZM498.709 140.026L498.519 142.782L494.813 142.783C491.307 142.784 491.13 142.701 491.524 141.233C491.753 140.379 491.945 139.313 491.949 138.861C491.955 138.41 493.125 137.919 494.549 137.77C495.973 137.622 497.534 137.448 498.018 137.384C498.63 137.304 498.84 138.108 498.709 140.026ZM264.992 148.293C273.768 150.054 286.372 156.156 293.751 162.215C307.129 173.2 316.379 194.371 315.165 211.228C313.806 230.1 302.715 248.728 286.711 259.018C269.186 270.285 244.155 272.508 226.077 264.403C205.697 255.266 190.895 236.33 188.315 216.094C185.374 193.035 193.835 173.399 212.922 158.984C227.086 148.288 245.811 144.443 264.992 148.293ZM414.967 150.298C413.866 151.543 414.336 153.184 418.774 163.6C423.383 174.416 427.656 189.254 428.99 199.07C429.333 201.604 429.794 202.521 430.945 202.963C431.781 203.283 432.739 203.269 433.098 202.93C434.046 202.04 430.477 184.851 427.54 176.164C424.785 168.013 416.921 149.202 416.287 149.243C416.062 149.257 415.468 149.732 414.967 150.298ZM399.277 151.574C398.263 153.119 398.286 153.442 399.583 155.982C400.353 157.489 401.584 160.96 402.319 163.694C403.777 169.121 403.565 170.977 401.015 175.096C398.748 178.759 397.152 179.553 392.053 179.553C384.896 179.553 382.907 181.807 385.836 186.603C387.616 189.518 387.617 192.945 385.838 194.721C383.717 196.839 382.56 196.405 380.223 192.611C378.781 190.272 377.741 189.25 377.066 189.509C376.511 189.721 375.928 189.895 375.769 189.895C374.961 189.895 375.687 191.39 377.379 193.212C378.424 194.337 379.679 195.757 380.168 196.368C381.442 197.957 384.772 197.739 386.856 195.927C388.361 194.62 388.666 193.725 388.794 190.239C388.938 186.31 389.057 186.051 391.175 185.069C393.339 184.065 394.146 183 392.744 183C392.364 183 392.053 182.69 392.053 182.311C392.053 181.932 393.082 181.621 394.338 181.621C395.595 181.621 397.226 181.166 397.964 180.609C399.641 179.343 400.34 179.297 400.34 180.455C400.34 180.952 400.787 181.96 401.334 182.696C402.22 183.89 402.442 183.922 403.385 182.996C404.622 181.781 404.122 178.863 402.676 178.863C401.392 178.863 401.447 178.639 403.447 175.695C404.682 173.879 405.174 172.234 405.174 169.919C405.174 165.195 403.758 158.771 402.299 156.88C400.643 154.734 400.586 151.788 402.207 152.099C403.331 152.316 407.445 157.121 408.116 159.003C408.293 159.498 408.686 159.672 408.99 159.389C410.363 158.11 404.019 149.906 401.657 149.906C400.95 149.906 399.879 150.656 399.277 151.574ZM240.132 152.632C218.544 156.661 199.073 174.777 194.823 194.786C193.236 202.261 193.824 218.225 195.913 224.368C199.044 233.573 202.733 239.422 210.093 246.847C216.451 253.26 217.629 254.119 224.94 257.679C229.308 259.805 234.901 262.01 237.37 262.578C267.1 269.422 296.478 253.554 306.652 225.158C308.694 219.456 308.789 218.717 308.814 208.165C308.841 197.386 308.79 196.987 306.545 190.695C305.282 187.153 302.897 182.034 301.245 179.319C298.143 174.223 289.747 165.331 285.631 162.783C284.345 161.987 283.124 161.101 282.919 160.814C282.128 159.706 271.571 155.279 266.51 153.933C260.611 152.365 245.546 151.622 240.132 152.632ZM135.896 157.343C134.587 158.061 133.38 159.055 133.214 159.552C133.004 160.181 133.406 160.11 134.539 159.317C137.15 157.492 144.334 157.947 145.118 159.987C145.422 160.778 145.222 160.823 144.095 160.22C143.324 159.809 142.01 159.579 141.175 159.71C139.883 159.912 140.089 160.175 142.564 161.477C145.969 163.268 147.016 163.4 146.467 161.972C145.983 160.711 145.746 160.689 150.361 162.35L154.159 163.716L150.901 163.568C147.281 163.404 145.828 164.088 148.417 164.736C150.874 165.352 157.611 164.842 157.611 164.04C157.611 163.661 155.518 162.66 152.96 161.815C150.401 160.971 147.105 159.485 145.633 158.513C141.97 156.093 138.856 155.719 135.896 157.343ZM260.516 157.167C275.032 159.694 288.887 168.734 296.954 180.941C298.329 183.022 300.464 187.671 301.696 191.274C303.652 196.989 303.973 198.937 304.214 206.564C304.515 216.115 303.932 219.992 301.135 227.032C299.221 231.852 292.381 242.441 289.701 244.734C282.634 250.779 274.97 255.128 267.064 257.579C262.646 258.949 260.412 259.185 251.872 259.185C240.496 259.185 235.899 258.354 228.738 255.006C215.218 248.683 204.097 235.765 199.692 221.265C197.949 215.525 197.934 200.374 199.666 194.031C203.282 180.791 214.144 168.028 227.357 161.493C237.463 156.495 248.433 155.063 260.516 157.167ZM410.501 162.159C408.74 165.505 408.686 165.828 409.816 166.243C410.491 166.491 411.292 167.105 411.596 167.608C412.487 169.082 413.902 168.67 415.837 166.375C417.702 164.163 417.721 162.292 415.899 160.369C415.196 159.626 414.953 159.963 414.599 162.176C414.173 164.834 412.725 166.868 411.867 166.012C411.631 165.775 411.755 164.988 412.145 164.262C412.534 163.536 412.754 161.948 412.633 160.733L412.414 158.524L410.501 162.159ZM334.047 162.874C334.047 163.233 334.521 163.919 335.1 164.399C335.678 164.878 335.986 165.436 335.784 165.638C335.582 165.841 336.005 166.65 336.725 167.436C337.792 168.602 338.161 170.625 338.715 178.358C339.363 187.395 339.486 187.934 341.274 189.588C342.571 190.789 343.586 191.189 344.556 190.881C345.416 190.609 345.794 190.704 345.532 191.128C345.17 191.712 347.093 193.043 347.509 192.497C347.897 191.986 349.93 182.88 349.93 181.652C349.93 180.877 350.206 180.242 350.543 180.242C350.88 180.242 352.668 179.204 354.515 177.935C356.363 176.666 358.912 175.092 360.18 174.438C362.378 173.303 362.55 173.306 363.874 174.503C365.656 176.112 367.194 179.085 367.194 180.919C367.194 181.708 367.66 182.533 368.229 182.751C368.799 182.969 369.265 183.58 369.265 184.108C369.265 184.636 369.72 185.069 370.277 185.069C371.89 185.069 372.718 187.411 372.718 191.976C372.718 195.068 372.951 196.133 373.581 195.913C374.185 195.702 374.401 194.08 374.301 190.512C374.17 185.901 373.973 185.246 372.229 183.657C371.168 182.692 369.639 180.511 368.829 178.81C368.02 177.109 366.517 174.719 365.489 173.5C363.221 170.808 361.878 170.985 356.215 174.722C354.088 176.126 351.651 177.641 350.801 178.088C349.951 178.537 349.069 179.747 348.841 180.779C347.97 184.719 346.341 189.208 345.621 189.652C344.682 190.232 340.955 186.156 340.946 184.54C340.926 180.468 339.441 167.498 338.874 166.44C338.054 164.912 334.047 161.951 334.047 162.874ZM142.937 164.152C141.615 164.685 141.912 165.764 143.381 165.764C144.1 165.764 144.867 165.298 145.086 164.73C145.48 163.704 144.622 163.473 142.937 164.152ZM389.291 182.36C389.291 183.135 387.601 185.069 386.923 185.069C386.215 185.069 386.509 183.296 387.358 182.449C388.385 181.423 389.291 181.381 389.291 182.36ZM401.013 192.353C399.948 195.151 400.22 197.313 401.825 198.807C402.643 199.567 403.497 200.075 403.724 199.936C403.952 199.797 404.034 197.635 403.907 195.133C403.734 191.742 403.422 190.584 402.681 190.584C402.134 190.584 401.384 191.38 401.013 192.353ZM326.106 196.465C328.385 196.705 333.823 197.486 338.19 198.201C350.513 200.215 358.859 201.46 372.718 203.351C385.409 205.082 393.652 206.342 422.783 211.007C443.746 214.363 445.139 214.728 435.558 214.347C431.19 214.174 415.031 213.709 399.649 213.315C384.267 212.921 364.961 212.299 356.747 211.933C348.532 211.567 337.345 211.263 331.887 211.258C326.428 211.251 321.549 210.985 321.043 210.665C320.496 210.319 319.997 208.296 319.813 205.676C319.643 203.254 319.396 199.956 319.265 198.349C319.047 195.681 319.154 195.453 320.494 195.728C321.302 195.892 323.827 196.224 326.106 196.465ZM184.826 222.352C185.62 225.793 186.269 228.981 186.269 229.437C186.269 230.081 183.395 230.078 173.321 229.425C166.2 228.963 152.45 228.087 142.765 227.48C133.08 226.872 119.407 225.926 112.38 225.378C91.012 223.708 57.6025 221.61 52.3881 221.61C49.6826 221.61 47.4687 221.349 47.4687 221.03C47.4687 220.711 54.0724 220.249 62.1429 220.004C102.628 218.773 145.813 217.335 156.921 216.848C163.757 216.548 172.508 216.256 176.367 216.199L183.383 216.094L184.826 222.352ZM432.566 228.964C432.312 229.217 432.103 231.932 432.098 234.997C432.089 242.722 430.475 256.178 428.329 266.425C427.336 271.165 426.359 275.508 426.157 276.077C425.544 277.81 422.439 267.827 422.421 264.065C422.404 260.572 421.525 255.631 420.789 254.895C420.05 254.159 418.516 256.074 417.721 258.72C416.647 262.301 414.577 264.189 413.083 262.95C412.481 262.451 411.53 261.16 410.971 260.079C410.07 258.339 410.075 257.944 411.017 256.601C412.513 254.468 412.359 253.787 410.074 252.44C407.227 250.76 406.219 250.941 403.193 253.67C400.096 256.463 399.607 256.562 397.947 254.729C396.816 253.483 396.563 253.457 394.732 254.402C393.638 254.967 392.744 255.707 392.744 256.047C392.744 256.387 391.707 257.007 390.441 257.424C389.174 257.841 387.25 259.109 386.164 260.239C383.97 262.526 380.741 263.657 376.388 263.663C369.277 263.672 368.088 265.628 367.281 278.642C366.781 286.719 366.849 288.322 367.737 289.345C368.959 290.753 373.286 292.096 374.379 291.407C374.795 291.146 376.844 290.844 378.933 290.736C381.022 290.629 384.44 290.38 386.529 290.184C391.14 289.75 393.403 290.754 394.767 293.839C395.389 295.242 396.25 296.071 397.085 296.071C397.982 296.071 398.287 296.407 398.02 297.1C397.761 297.776 398.356 298.506 399.752 299.227C401.317 300.035 401.676 300.529 401.11 301.094C400.142 302.06 400.118 302.966 401.058 302.966C401.454 302.966 402.641 303.604 403.697 304.383L405.616 305.8L410.93 302.938C413.853 301.364 416.551 299.506 416.924 298.808C418.28 296.279 417.551 295.974 415.161 298.069C413.818 299.247 411.229 300.964 409.408 301.885L406.098 303.561L403.219 300.771C400.958 298.58 400.34 297.48 400.34 295.647C400.34 293.228 399.785 292.764 398.467 294.081C397.457 295.089 396.197 294.266 396.197 292.599C396.197 289.828 390.313 287.646 385.493 288.629C383.974 288.939 380.298 289.336 377.325 289.51C370.144 289.932 368.333 288.91 368.923 284.77C369.145 283.212 369.405 278.985 369.501 275.376C369.596 271.768 369.931 268.401 370.245 267.894C371.159 266.418 375.178 265.046 378.588 265.046C382.522 265.046 385.87 263.686 387.721 261.337C388.504 260.344 389.521 259.53 389.982 259.53C390.442 259.53 392.037 258.567 393.525 257.39L396.231 255.251L397.645 257.045C398.423 258.032 399.359 258.841 399.727 258.841C400.094 258.841 401.613 257.599 403.102 256.083C404.82 254.333 406.436 253.325 407.522 253.325C409.839 253.325 410.258 254.26 409.223 257.118C408.448 259.258 408.505 259.728 409.74 261.38C410.504 262.401 411.97 263.864 412.998 264.63L414.867 266.023L416.622 264.271C417.588 263.307 418.78 261.349 419.272 259.92C420.159 257.346 420.17 257.377 420.533 263.425C420.735 266.781 421.574 272.127 422.397 275.305C424.117 281.943 423.87 284.161 420.458 292.736C414.525 307.65 407.895 319.513 398.904 331.306L394.859 336.611L396.709 337.074C397.925 337.379 398.806 337.216 399.277 336.6C399.672 336.084 401.887 333.192 404.2 330.173C415.556 315.35 424.112 297.216 430.318 274.817C433.02 265.065 436.249 242.651 436.249 233.64C436.249 228.719 436.181 228.504 434.638 228.504C433.751 228.504 432.819 228.711 432.566 228.964ZM408.497 231.733C408.995 231.932 409.591 231.908 409.821 231.679C410.05 231.45 409.642 231.287 408.915 231.317C408.11 231.35 407.946 231.513 408.497 231.733ZM411.66 232.07C411.363 232.552 412.155 233.737 413.622 235C414.976 236.168 416.291 237.82 416.545 238.674C417.235 240.994 415.592 240.603 414.771 238.252C414.392 237.167 413.281 235.914 412.301 235.468C409.863 234.359 409.556 234.945 411.804 236.415C413.142 237.291 413.403 237.766 412.763 238.161C411.61 238.873 414.588 243.228 415.888 242.729C417.39 242.154 417.595 243.048 416.54 245.568C415.305 248.52 415.305 248.543 416.496 248.086C417.03 247.882 417.962 248.43 418.584 249.314C419.685 250.881 419.747 250.888 421.819 249.705C424.699 248.059 425.072 248.158 425.742 250.739C426.436 253.414 428.363 253.82 428.193 251.256C427.95 247.613 426.734 245.741 424.611 245.741C423.509 245.741 422.209 246.219 421.723 246.804C420.483 248.295 419.758 247.302 418.625 242.564C417.31 237.067 417.352 236.088 418.903 236.088C420.351 236.088 425.645 241.648 426.766 244.345C427.332 245.709 427.549 245.835 427.767 244.925C428.635 241.31 420.965 233.114 417.836 234.312C416.48 234.832 414.151 233.544 414.151 232.272C414.151 231.067 412.371 230.923 411.66 232.07ZM387.91 234.02C387.91 234.399 388.395 234.709 388.987 234.709C389.578 234.709 389.871 234.399 389.636 234.02C389.402 233.641 388.918 233.331 388.56 233.331C388.202 233.331 387.91 233.641 387.91 234.02ZM398.063 235.125C396.554 237.135 394.816 237.282 394.816 235.399C394.816 233.559 393.649 233.639 393.051 235.519C392.554 237.082 394.126 238.846 396.015 238.846C397.092 238.846 400.34 235.794 400.34 234.781C400.34 233.369 399.259 233.532 398.063 235.125ZM376.171 236.089C378.342 237.786 386.82 242.294 387.838 242.294C389.768 242.294 388.134 240.906 382.703 237.935C376.542 234.564 372.903 233.536 376.171 236.089ZM382.029 235.38C382.263 235.758 384.599 237.318 387.22 238.846C392.212 241.757 393.554 242.983 391.749 242.983C389.866 242.983 390.618 243.971 393.67 245.506C396.244 246.8 396.962 246.891 399.176 246.199C400.575 245.761 401.721 245.187 401.721 244.923C401.721 243.837 400.168 243.622 397.846 244.387C396.041 244.982 395.174 244.995 394.614 244.436C394.054 243.877 394.442 243.672 396.059 243.672C399.201 243.672 398.792 242.607 395.11 241.204C393.373 240.541 391.243 239.443 390.378 238.763C388.473 237.267 381.431 234.414 382.029 235.38ZM84.7609 250.197C77.3548 251.289 70.0335 252.349 68.4909 252.552C66.0574 252.874 65.5733 253.235 64.8288 255.29C64.3572 256.592 62.7399 258.711 61.2345 259.997L58.4972 262.336L64.5513 263.512C67.8804 264.159 71.7537 264.985 73.1576 265.349L75.7105 266.01L75.705 276.469L75.6988 286.927L82.8626 289.42C86.8022 290.792 91.5221 292.748 93.35 293.769C95.1785 294.788 96.7903 295.623 96.9325 295.623C97.0748 295.623 97.1908 292.33 97.1908 288.303C97.1908 281.666 97.3034 281.015 98.3993 281.315C99.0636 281.498 103.415 282.659 108.067 283.897L116.526 286.148V293.312C116.526 300.378 116.505 300.472 114.972 300.15C114.118 299.972 110.368 299.16 106.638 298.346C102.909 297.533 99.7065 297.018 99.5221 297.203C99.3377 297.387 100.99 298.63 103.195 299.965C105.4 301.3 107.731 302.87 108.376 303.453C110.036 304.954 113.379 306.6 117.115 307.754C121.312 309.051 137.322 312.587 141.731 313.191C143.63 313.451 149.05 314.414 153.777 315.33C158.502 316.246 162.93 316.997 163.617 316.997C164.772 316.997 164.865 316.112 164.865 305.06V293.123L155.715 290.621C150.682 289.245 145.256 287.782 143.656 287.37L140.747 286.621L140.548 280.263L140.35 273.905L123.777 268.447C114.662 265.444 107.073 262.883 106.912 262.755C106.751 262.626 107.916 261.412 109.501 260.058C112.174 257.774 112.383 257.345 112.383 254.128C112.383 251.109 112.227 250.721 111.174 251.127C109.592 251.737 103.572 252.877 101.931 252.877C100.92 252.877 100.644 252.359 100.644 250.464C100.644 247.594 102.244 247.621 84.7609 250.197ZM95.1192 252.581C95.1192 252.796 94.1807 254.335 93.0344 255.999C91.4841 258.248 90.3765 259.117 88.7185 259.383C84.5144 260.059 76.1283 261.065 71.0825 261.498L66.0359 261.932L67.946 258.955C68.997 257.318 69.8699 255.929 69.8851 255.868C69.901 255.807 73.643 255.216 78.2007 254.557C82.7583 253.898 87.8856 253.136 89.5948 252.865C93.8727 252.186 95.1192 252.121 95.1192 252.581ZM104.663 259.006L103.118 261.688L100.086 260.777C98.4193 260.276 96.8856 259.697 96.6791 259.49C95.7931 258.606 98.2142 257.068 100.87 256.826C102.455 256.683 104.304 256.511 104.98 256.445C106.095 256.335 106.066 256.572 104.663 259.006ZM21.7482 264.811L16.3964 265.5V272.202V278.904L18.5544 279.335C19.7414 279.572 23.0043 279.766 25.8051 279.766H30.898V273.216C30.898 267.126 30.9946 266.666 32.2791 266.666C33.5669 266.666 33.6602 267.126 33.6602 273.462V280.258L41.4289 280.928C45.702 281.297 49.4303 281.478 49.7155 281.331C50.0007 281.184 50.2334 277.204 50.2334 272.486V263.908L38.6667 264.015C32.3053 264.074 24.6913 264.432 21.7482 264.811ZM107.229 266.873L116.181 269.838L116.379 276.586L116.578 283.334L114.307 282.841C113.059 282.569 110.328 281.809 108.24 281.152C106.151 280.495 102.811 279.546 100.816 279.042L97.1908 278.126V271.017C97.1908 267.107 97.4353 263.908 97.7336 263.908C98.0319 263.908 102.305 265.242 107.229 266.873ZM52.8589 273.389L53.0674 282.183L62.789 284.102C68.1359 285.157 72.5478 285.932 72.5934 285.824C72.639 285.715 72.5816 281.728 72.4663 276.963L72.2557 268.3L63.1439 266.443C58.1319 265.422 53.7207 264.588 53.3409 264.591C52.9058 264.594 52.7277 267.849 52.8589 273.389ZM130.682 274.545L136.897 276.738L137.097 282.733C137.207 286.031 137.064 288.729 136.779 288.729C136.494 288.729 132.599 287.721 128.123 286.488L119.984 284.247L119.981 277.815L119.979 271.383L122.223 271.867C123.458 272.133 127.264 273.338 130.682 274.545ZM9.09521 283.656C4.75648 286.245 1.50812 288.985 0.433624 290.963C-0.494476 292.67 0.956367 294.694 9.4605 303.553C24.393 319.108 28.7469 326.796 34.2527 347.333L36.1938 354.572L107.953 354.747L179.712 354.922L183.358 343.026C185.363 336.483 187.616 329.803 188.364 328.182C189.839 324.985 190.097 322.824 189.08 322.196C188.725 321.977 185.23 321.363 181.312 320.831C170.526 319.367 137.474 313.739 128.284 311.802C116.722 309.364 113.767 308.176 104.473 302.224C94.334 295.732 89.9608 293.618 80.2447 290.517C66.3619 286.086 50.5842 283.661 28.2138 282.518C20.4707 282.122 13.9222 281.667 13.6618 281.507C13.4008 281.345 11.3457 282.313 9.09521 283.656ZM269.135 273.554C269.135 275.257 265.054 301.297 263.229 311.239C262.638 314.462 261.382 321.598 260.439 327.097C259.495 332.595 258.125 340.041 257.393 343.644C256.662 347.246 255.605 353.253 255.043 356.991C254.482 360.73 253.849 363.961 253.638 364.173C253.13 364.68 253.152 347.754 253.711 307.251L254.168 274.08L258.026 273.642C260.149 273.402 263.283 272.955 264.992 272.65C266.701 272.344 268.332 272.059 268.617 272.017C268.903 271.975 269.135 272.666 269.135 273.554ZM37.8035 287.38C50.8549 288.301 60.4128 289.716 70.4983 292.222C83.4351 295.435 91.1133 298.788 101.962 305.961C109.38 310.865 117.808 314.335 126.197 315.94C129.424 316.557 135.304 317.695 139.265 318.469C145.881 319.762 151.701 320.736 169.699 323.558C178.363 324.916 183.679 325.899 183.976 326.195C184.332 326.551 178.648 344.814 177.955 345.541C177.603 345.909 170.532 345.833 160.583 345.354C151.354 344.909 132.927 344.085 119.634 343.521C106.341 342.957 87.2296 342.031 77.1648 341.462C67.1001 340.893 53.7856 340.142 47.5775 339.792C41.3695 339.443 36.2193 339.057 36.1337 338.936C35.959 338.687 33.5586 330.229 31.5312 322.716C29.5749 315.464 23.5705 298.913 20.5148 292.348L17.8673 286.66L22.8289 286.667C25.5579 286.671 32.2963 286.992 37.8035 287.38ZM16.6602 294.606C20.2227 301.875 23.4773 310.156 22.9704 310.662C22.804 310.829 21.8006 309.918 20.7406 308.64C19.6806 307.361 15.7839 303.256 12.0805 299.517C8.37703 295.779 5.34758 292.48 5.34758 292.185C5.34758 291.43 11.7614 287.328 12.5984 287.548C12.9782 287.648 14.806 290.824 16.6602 294.606ZM131.373 290.376L138.969 292.521L139.169 298.963L139.368 305.406L136.406 304.915C134.777 304.645 131.142 303.84 128.328 303.126C125.514 302.412 122.676 301.828 122.021 301.828C120.447 301.828 120 299.892 119.989 293.025L119.979 287.324L121.878 287.777C122.923 288.027 127.195 289.196 131.373 290.376ZM130.109 306.599C138.029 308.231 140.866 309.689 134.982 309.104C129.449 308.553 120.669 306.563 120.669 305.859C120.669 304.971 123.155 305.166 130.109 306.599ZM400.658 310.868C399.537 313.801 399.63 316.065 400.873 316.065C401.767 316.065 406.168 311.312 405.704 310.849C405.477 310.623 404.65 310.781 403.866 311.2C402.54 311.909 402.469 311.815 402.857 309.877C403.498 306.677 402.004 307.351 400.658 310.868ZM117.56 356.771C2.88737 357.208 2.22872 357.84 12.4364 358.915C14.9052 359.175 33.5602 359.618 106.448 359.9L238.97 360.412L238.525 358.751C238.28 357.836 238.075 356.856 238.07 356.571C238.065 356.286 237.828 356.113 237.543 356.185C237.257 356.257 183.265 356.521 117.56 356.771ZM268.347 356.604C264.769 356.791 264.422 356.954 264.107 358.597L263.765 360.387L394.374 359.936C522.597 359.492 510.872 358.951 468.173 357.915C420.32 356.754 283.93 355.785 268.347 356.604Z" fill="black"/>
<path fill-rule="evenodd" clip-rule="evenodd" d="M208.617 186.321C210.948 188.672 211.032 188.814 221.76 208.718C229.915 223.847 231.44 226.562 232.849 228.47C235.615 232.215 238.758 234.179 242.592 234.556C243.396 234.635 247.522 234.657 251.763 234.605C256.683 234.544 258.997 234.459 258.157 234.37C256.212 234.163 254.244 233.553 252.367 232.575C249.387 231.023 246.729 227.854 244.292 222.948C243.668 221.693 242.589 219.599 241.894 218.295C241.199 216.991 239.251 213.194 237.565 209.856C235.879 206.518 233.64 202.123 232.588 200.089C231.537 198.055 229.371 193.853 227.776 190.752L224.876 185.114L216.097 185.063L207.318 185.012L208.617 186.321ZM261.616 185.057L249.279 185.109L248.66 186.483C248.32 187.238 245.938 192.157 243.368 197.412L238.694 206.968L241.265 212.01L243.837 217.053L249.638 205.305C252.829 198.844 255.67 193.312 255.952 193.013C256.234 192.713 256.76 192.315 257.122 192.129C258.533 191.401 259.56 191.326 267.089 191.406C273.932 191.479 274.397 191.506 275.58 191.9C277.503 192.541 278.418 193.624 278.103 194.886C277.856 195.88 277.395 195.932 268.911 195.921C262.496 195.913 260.973 195.962 260.048 196.206C258.626 196.58 257.79 197.104 257.115 198.043C255.241 200.651 256.481 203.875 260.012 205.579C260.853 205.985 264.461 207.273 268.029 208.441C275.102 210.758 276.915 211.429 279.821 212.802C285.831 215.643 288.762 219.507 288.781 224.617C288.789 226.803 289.056 226.472 289.215 224.079C289.344 222.13 288.944 220.18 288.029 218.295C287.049 216.278 284.45 213.709 281.742 212.08C279.833 210.932 275.114 208.778 272.495 207.86C271.797 207.615 271.226 207.345 271.226 207.26C271.226 207.175 272.527 207.106 274.116 207.106C277.289 207.106 279.403 206.814 281.553 206.081C286.043 204.549 288.702 200.946 288.712 196.383C288.724 190.756 284.367 186.553 277.338 185.409C274.821 184.999 274.918 185.001 261.616 185.057ZM253.015 205.446C252.485 206.515 251.913 207.942 251.745 208.616C251.16 210.956 251.831 213.178 253.619 214.826C255.4 216.467 255.655 216.571 266.576 220.111C272.439 222.011 275.057 224.227 275.318 227.511C275.493 229.706 274.3 231.803 272.23 232.939C270.973 233.629 268.596 234.218 266.396 234.384C264.675 234.514 264.842 234.533 268.875 234.669C275.905 234.907 279.371 234.27 282.108 232.238C284.375 230.555 285.321 228.678 285.472 225.568C285.59 223.134 285.163 221.536 283.951 219.876C281.616 216.677 277.962 214.761 267.841 211.429C260.349 208.963 260.012 208.835 258.186 207.757C256.509 206.767 255.094 205.402 254.6 204.297C254.404 203.86 254.185 203.502 254.112 203.502C254.039 203.502 253.545 204.377 253.015 205.446Z" fill="black"/>
<path d="M495.769 470.659C498.608 470.659 500.813 470.113 502.385 469.021C503.957 467.93 504.744 466.357 504.744 464.305C504.744 462.645 504.372 461.27 503.63 460.178C502.931 459.086 501.839 458.082 500.355 457.164C498.87 456.247 496.686 455.156 493.804 453.889C490.135 452.273 487.297 450.854 485.288 449.631C483.279 448.365 481.685 446.792 480.506 444.914C479.37 442.993 478.803 440.569 478.803 437.643C478.803 433.451 480.288 430.306 483.257 428.21C486.227 426.07 490.943 425 497.407 425C500.289 425 503.062 425.284 505.726 425.852C508.434 426.419 510.705 427.14 512.539 428.013L510.967 438.036H509.198C508.368 435.372 507.495 433.254 506.578 431.682C505.704 430.11 504.503 428.909 502.975 428.079C501.446 427.205 499.416 426.769 496.883 426.769C491.118 426.769 488.236 428.647 488.236 432.402C488.236 433.931 488.585 435.197 489.284 436.202C489.983 437.206 491.031 438.123 492.428 438.953C493.826 439.739 496.14 440.918 499.372 442.491L500.682 443.08C504.744 445.045 507.735 446.639 509.657 447.862C511.622 449.085 513.172 450.614 514.308 452.448C515.443 454.238 516.011 456.575 516.011 459.457C516.011 463.737 514.395 466.969 511.163 469.152C507.975 471.336 502.953 472.428 496.097 472.428C493.345 472.428 490.288 472.122 486.926 471.511C483.607 470.899 481.03 470.157 479.196 469.283L480.964 457.754H482.668C483.235 461.16 484.087 463.803 485.222 465.68C486.358 467.558 487.777 468.869 489.48 469.611C491.184 470.31 493.28 470.659 495.769 470.659Z" fill="black"/>
<path d="M430.779 429.061C430.779 428.58 430.67 428.253 430.452 428.078C430.277 427.903 429.862 427.75 429.207 427.619L426.783 427.095V425.785H444.929L466.022 452.381V428.995C466.022 428.515 465.913 428.209 465.694 428.078C465.52 427.903 465.127 427.75 464.515 427.619L462.157 427.095V425.785H472.114V427.095L469.69 427.619C469.035 427.75 468.599 427.903 468.38 428.078C468.206 428.253 468.118 428.58 468.118 429.061V471.641H465.76L432.875 430.043V468.431C432.875 468.911 432.963 469.239 433.137 469.413C433.356 469.544 433.771 469.676 434.382 469.807L436.74 470.331V471.641H426.783V470.331L429.207 469.807C429.862 469.676 430.277 469.523 430.452 469.348C430.67 469.173 430.779 468.846 430.779 468.365V429.061Z" fill="black"/>
<path d="M395.829 425C403.209 425 409.105 426.878 413.515 430.634C417.926 434.346 420.132 440.373 420.132 448.714C420.132 457.055 417.926 463.104 413.515 466.86C409.105 470.572 403.209 472.428 395.829 472.428C388.448 472.428 382.552 470.572 378.142 466.86C373.731 463.104 371.525 457.055 371.525 448.714C371.525 440.416 373.731 434.389 378.142 430.634C382.596 426.878 388.492 425 395.829 425ZM395.829 470.528C398.492 470.528 400.523 469.807 401.921 468.366C403.362 466.925 404.344 464.654 404.869 461.553C405.393 458.453 405.655 454.173 405.655 448.714C405.655 443.255 405.393 438.975 404.869 435.874C404.344 432.774 403.362 430.503 401.921 429.061C400.523 427.62 398.492 426.9 395.829 426.9C393.165 426.9 391.112 427.62 389.671 429.061C388.273 430.503 387.313 432.774 386.789 435.874C386.264 438.975 386.002 443.255 386.002 448.714C386.002 454.173 386.264 458.453 386.789 461.553C387.313 464.654 388.273 466.925 389.671 468.366C391.112 469.807 393.165 470.528 395.829 470.528Z" fill="black"/>
<path d="M342.787 470.659C345.625 470.659 347.831 470.113 349.403 469.021C350.975 467.93 351.761 466.357 351.761 464.305C351.761 462.645 351.39 461.27 350.648 460.178C349.949 459.086 348.857 458.082 347.372 457.164C345.887 456.247 343.704 455.156 340.821 453.889C337.153 452.273 334.314 450.854 332.306 449.631C330.297 448.365 328.703 446.792 327.524 444.914C326.388 442.993 325.82 440.569 325.82 437.643C325.82 433.451 327.305 430.306 330.275 428.21C333.244 426.07 337.961 425 344.424 425C347.307 425 350.08 425.284 352.744 425.852C355.451 426.419 357.722 427.14 359.556 428.013L357.984 438.036H356.216C355.386 435.372 354.512 433.254 353.595 431.682C352.722 430.11 351.521 428.909 349.992 428.079C348.464 427.205 346.433 426.769 343.9 426.769C338.136 426.769 335.253 428.647 335.253 432.402C335.253 433.931 335.603 435.197 336.301 436.202C337 437.206 338.048 438.123 339.446 438.953C340.843 439.739 343.158 440.918 346.39 442.491L347.7 443.08C351.761 445.045 354.753 446.639 356.674 447.862C358.639 449.085 360.19 450.614 361.325 452.448C362.461 454.238 363.028 456.575 363.028 459.457C363.028 463.737 361.413 466.969 358.181 469.152C354.993 471.336 349.971 472.428 343.114 472.428C340.363 472.428 337.306 472.122 333.943 471.511C330.624 470.899 328.048 470.157 326.213 469.283L327.982 457.754H329.685C330.253 461.16 331.105 463.803 332.24 465.68C333.375 467.558 334.795 468.869 336.498 469.611C338.201 470.31 340.297 470.659 342.787 470.659Z" fill="black"/>
<path d="M251.051 469.807C251.706 469.676 252.121 469.523 252.295 469.348C252.514 469.173 252.623 468.846 252.623 468.365V429.061C252.623 428.58 252.514 428.253 252.295 428.078C252.121 427.903 251.706 427.75 251.051 427.619L248.627 427.095V425.785H268.672C277.843 425.785 284.831 427.51 289.634 430.96C294.438 434.41 296.84 440.328 296.84 448.713C296.84 457.098 294.438 463.016 289.634 466.466C284.831 469.916 277.843 471.641 268.672 471.641H248.627V470.331L251.051 469.807ZM265.986 469.676H268.672C272.297 469.676 275.092 469.042 277.057 467.776C279.022 466.466 280.398 464.326 281.184 461.356C281.97 458.386 282.363 454.172 282.363 448.713C282.363 443.254 281.97 439.04 281.184 436.07C280.398 433.1 279.022 430.982 277.057 429.716C275.092 428.405 272.297 427.75 268.672 427.75H265.986V469.676Z" fill="black"/>
<path d="M202.564 429.061C202.564 428.58 202.455 428.253 202.237 428.078C202.062 427.903 201.647 427.75 200.992 427.619L198.568 427.095V425.785H216.714L237.807 452.381V428.995C237.807 428.515 237.698 428.209 237.48 428.078C237.305 427.903 236.912 427.75 236.3 427.619L233.942 427.095V425.785H243.899V427.095L241.475 427.619C240.82 427.75 240.384 427.903 240.165 428.078C239.991 428.253 239.903 428.58 239.903 429.061V471.641H237.545L204.661 430.043V468.431C204.661 468.911 204.748 469.239 204.923 469.413C205.141 469.544 205.556 469.676 206.167 469.807L208.525 470.331V471.641H198.568V470.331L200.992 469.807C201.647 469.676 202.062 469.523 202.237 469.348C202.455 469.173 202.564 468.846 202.564 468.365V429.061Z" fill="black"/>
<path d="M172.787 470.33L175.604 470.068C176.215 469.981 176.521 469.741 176.521 469.348C176.521 469.129 176.455 468.867 176.324 468.562L172.001 458.998H156.803L152.873 468.562C152.742 468.867 152.676 469.129 152.676 469.348C152.676 469.741 152.982 469.981 153.593 470.068L156.41 470.33V471.641H146.453V470.33L148.877 470.068C149.401 470.025 149.772 469.894 149.991 469.675C150.209 469.457 150.449 469.064 150.711 468.496L168.857 425.064H170.953L190.146 468.496C190.408 469.064 190.649 469.457 190.867 469.675C191.085 469.894 191.456 470.025 191.981 470.068L194.404 470.33V471.641H172.787V470.33ZM171.149 457.032L164.075 441.376L157.589 457.032H171.149Z" fill="black"/>
<path d="M100.865 456.508C100.515 454.368 100.1 452.884 99.6201 452.054C99.1833 451.18 98.4628 450.613 97.4583 450.351C96.4539 450.045 94.7944 449.892 92.4798 449.892H90.5801V468.3C90.5801 468.78 90.6674 469.108 90.8421 469.282C91.0605 469.457 91.4972 469.61 92.1522 469.741L94.969 470.331V471.641H73.2207V470.331L75.6445 469.807C76.2995 469.676 76.7144 469.523 76.8891 469.348C77.1075 469.173 77.2166 468.846 77.2166 468.365V429.061C77.2166 428.58 77.1075 428.253 76.8891 428.078C76.7144 427.903 76.2995 427.75 75.6445 427.619L73.2207 427.095V425.785H92.4798C98.3318 425.785 102.983 426.178 106.433 426.964C109.883 427.707 112.394 428.951 113.966 430.698C115.538 432.445 116.324 434.825 116.324 437.839C116.324 441.201 115.32 443.8 113.311 445.634C111.302 447.425 108.049 448.647 103.55 449.303C106.127 449.477 108.18 449.892 109.708 450.547C111.28 451.202 112.503 452.25 113.377 453.692C114.25 455.089 114.927 457.032 115.407 459.522L116.128 463.452C116.477 465.33 116.717 466.597 116.848 467.252C117.023 467.907 117.241 468.409 117.503 468.758C117.809 469.108 118.268 469.282 118.879 469.282C119.971 469.282 120.888 468.475 121.63 466.859L123.006 468.038C122.395 469.304 121.456 470.331 120.189 471.117C118.966 471.903 116.958 472.296 114.163 472.296C111.368 472.296 109.162 471.99 107.546 471.379C105.931 470.767 104.664 469.697 103.747 468.169C102.83 466.597 102.131 464.348 101.651 461.422L100.865 456.508ZM90.5801 447.927H93.0693C95.6023 447.927 97.5457 447.577 98.8995 446.879C100.297 446.18 101.258 445.11 101.782 443.669C102.306 442.228 102.568 440.284 102.568 437.839C102.568 435.393 102.306 433.45 101.782 432.008C101.258 430.567 100.297 429.497 98.8995 428.799C97.5457 428.1 95.6023 427.75 93.0693 427.75H90.5801V447.927Z" fill="black"/>
<path d="M22.799 427.095L20.1132 427.357C19.4581 427.445 19.1306 427.772 19.1306 428.34C19.1306 428.602 19.1961 428.864 19.3271 429.126L31.2494 455.984L42.3201 428.864C42.4511 428.515 42.5166 428.253 42.5166 428.078C42.5166 427.685 42.2109 427.445 41.5995 427.357L38.7827 427.095V425.785H48.7398V427.095L46.316 427.357C45.792 427.401 45.4207 427.532 45.2024 427.75C44.984 427.969 44.7438 428.362 44.4818 428.93L26.5329 472.361H24.4367L5.4396 428.93C5.17757 428.362 4.93738 427.969 4.71902 427.75C4.50067 427.532 4.12946 427.401 3.6054 427.357L1.18164 427.095V425.785H22.799V427.095Z" fill="black"/>
<rect y="490.658" width="523" height="6.33948" fill="black"/>
<path d="M493.537 538.749L496.603 517.169H496.955L505.728 534.876L514.413 517.169H514.765L517.86 538.749H515.733L513.621 523.316L505.992 538.749H505.449L497.718 523.198L495.62 538.749H493.537Z" fill="black"/>
<path d="M337.182 517.169H339.338V538.749H337.182V517.169Z" fill="black"/>
<path d="M167.815 517.169H170.338L175.502 525.59L180.71 517.169H183.204L176.779 527.629L183.63 538.749H181.106L175.502 529.697L169.869 538.749H167.346L174.226 527.629L167.815 517.169Z" fill="black"/>
<path d="M2.64258 517.169H15.0096V519.296H4.79911V526.044H14.9216V528.157H4.79911V536.622H14.9216V538.749H2.64258V517.169Z" fill="black"/>
</svg>
